<svg width="361" height="40" viewBox="0 0 361 40" fill="none" xmlns="http://www.w3.org/2000/svg">
<path d="M21.8 7.24C22.12 8.33333 22.4667 9.57333 22.84 10.96C23.24 12.32 23.6533 13.7333 24.08 15.2C24.5333 16.6667 24.9867 18.1333 25.44 19.6C25.8933 21.0667 26.3333 22.4267 26.76 23.68C27.1067 22.32 27.4533 20.84 27.8 19.24C28.1733 17.64 28.52 15.9867 28.84 14.28C29.16 12.5733 29.4667 10.88 29.76 9.2C30.08 7.49333 30.3733 5.85333 30.64 4.28H37.12C36.1867 8.92 35.1067 13.6267 33.88 18.4C32.68 23.1733 31.3733 27.7067 29.96 32H24.24C23.3067 29.44 22.4 26.76 21.52 23.96C20.64 21.1333 19.7733 18.3067 18.92 15.48C18.0667 18.3067 17.2133 21.1333 16.36 23.96C15.5067 26.76 14.6133 29.44 13.68 32H7.96C6.54667 27.7067 5.22667 23.1733 4 18.4C2.8 13.6267 1.73333 8.92 0.8 4.28H7.56C7.82667 5.85333 8.12 7.49333 8.44 9.2C8.76 10.88 9.09333 12.5733 9.44 14.28C9.78667 15.9867 10.1333 17.64 10.48 19.24C10.8533 20.84 11.2267 22.32 11.6 23.68C12.08 22.3733 12.5467 20.9867 13 19.52C13.4533 18.0533 13.8933 16.5867 14.32 15.12C14.7467 13.6533 15.1333 12.24 15.48 10.88C15.8533 9.52 16.1867 8.30666 16.48 7.24H21.8ZM40.7297 32V1.92L46.6897 0.959999V11.04C47.0897 10.9067 47.5964 10.7867 48.2097 10.68C48.8497 10.5467 49.463 10.48 50.0497 10.48C51.7564 10.48 53.1697 10.72 54.2897 11.2C55.4364 11.6533 56.343 12.3067 57.0097 13.16C57.703 14.0133 58.183 15.0267 58.4497 16.2C58.743 17.3733 58.8897 18.68 58.8897 20.12V32H52.9297V20.84C52.9297 18.92 52.6764 17.56 52.1697 16.76C51.6897 15.96 50.783 15.56 49.4497 15.56C48.9164 15.56 48.4097 15.6133 47.9297 15.72C47.4764 15.8 47.063 15.8933 46.6897 16V32H40.7297ZM72.3244 27.84C72.911 27.84 73.471 27.8267 74.0044 27.8C74.5377 27.7733 74.9644 27.7333 75.2844 27.68V23.16C75.0444 23.1067 74.6844 23.0533 74.2044 23C73.7244 22.9467 73.2844 22.92 72.8844 22.92C72.3244 22.92 71.791 22.96 71.2844 23.04C70.8044 23.0933 70.3777 23.2133 70.0044 23.4C69.631 23.5867 69.3377 23.84 69.1244 24.16C68.911 24.48 68.8044 24.88 68.8044 25.36C68.8044 26.2933 69.111 26.9467 69.7244 27.32C70.3644 27.6667 71.231 27.84 72.3244 27.84ZM71.8444 10.4C73.6044 10.4 75.071 10.6 76.2444 11C77.4177 11.4 78.351 11.9733 79.0444 12.72C79.7644 13.4667 80.271 14.3733 80.5644 15.44C80.8577 16.5067 81.0044 17.6933 81.0044 19V31.4C80.151 31.5867 78.9644 31.8 77.4444 32.04C75.9244 32.3067 74.0844 32.44 71.9244 32.44C70.5644 32.44 69.3244 32.32 68.2044 32.08C67.111 31.84 66.1644 31.4533 65.3644 30.92C64.5644 30.36 63.951 29.64 63.5244 28.76C63.0977 27.88 62.8844 26.8 62.8844 25.52C62.8844 24.2933 63.1244 23.2533 63.6044 22.4C64.111 21.5467 64.7777 20.8667 65.6044 20.36C66.431 19.8533 67.3777 19.4933 68.4444 19.28C69.511 19.04 70.6177 18.92 71.7644 18.92C72.5377 18.92 73.2177 18.96 73.8044 19.04C74.4177 19.0933 74.911 19.1733 75.2844 19.28V18.72C75.2844 17.7067 74.9777 16.8933 74.3644 16.28C73.751 15.6667 72.6844 15.36 71.1644 15.36C70.151 15.36 69.151 15.44 68.1644 15.6C67.1777 15.7333 66.3244 15.9333 65.6044 16.2L64.8444 11.4C65.191 11.2933 65.6177 11.1867 66.1244 11.08C66.6577 10.9467 67.231 10.84 67.8444 10.76C68.4577 10.6533 69.0977 10.5733 69.7644 10.52C70.4577 10.44 71.151 10.4 71.8444 10.4ZM86.1938 5.72L92.1538 4.76V10.96H99.3138V15.92H92.1538V23.32C92.1538 24.5733 92.3671 25.5733 92.7938 26.32C93.2471 27.0667 94.1404 27.44 95.4738 27.44C96.1138 27.44 96.7671 27.3867 97.4338 27.28C98.1271 27.1467 98.7538 26.9733 99.3138 26.76L100.154 31.4C99.4338 31.6933 98.6338 31.9467 97.7538 32.16C96.8738 32.3733 95.7938 32.48 94.5138 32.48C92.8871 32.48 91.5404 32.2667 90.4738 31.84C89.4071 31.3867 88.5538 30.7733 87.9138 30C87.2738 29.2 86.8204 28.24 86.5538 27.12C86.3138 26 86.1938 24.76 86.1938 23.4V5.72ZM112.777 21.48C112.777 19.96 113.017 18.5333 113.497 17.2C114.003 15.84 114.723 14.6667 115.657 13.68C116.59 12.6667 117.723 11.8667 119.057 11.28C120.39 10.6933 121.91 10.4 123.617 10.4C124.737 10.4 125.763 10.5067 126.697 10.72C127.63 10.9067 128.537 11.1867 129.417 11.56L128.177 16.32C127.617 16.1067 127.003 15.92 126.337 15.76C125.67 15.6 124.923 15.52 124.097 15.52C122.337 15.52 121.017 16.0667 120.137 17.16C119.283 18.2533 118.857 19.6933 118.857 21.48C118.857 23.3733 119.257 24.84 120.057 25.88C120.883 26.92 122.31 27.44 124.337 27.44C125.057 27.44 125.83 27.3733 126.657 27.24C127.483 27.1067 128.243 26.8933 128.937 26.6L129.777 31.48C129.083 31.7733 128.217 32.0267 127.177 32.24C126.137 32.4533 124.99 32.56 123.737 32.56C121.817 32.56 120.163 32.28 118.777 31.72C117.39 31.1333 116.243 30.3467 115.337 29.36C114.457 28.3733 113.803 27.2133 113.377 25.88C112.977 24.52 112.777 23.0533 112.777 21.48ZM146.457 16.24C145.923 16.1067 145.297 15.9733 144.577 15.84C143.857 15.68 143.083 15.6 142.257 15.6C141.883 15.6 141.43 15.64 140.897 15.72C140.39 15.7733 140.003 15.84 139.737 15.92V32H133.777V12.08C134.843 11.7067 136.097 11.36 137.537 11.04C139.003 10.6933 140.63 10.52 142.417 10.52C142.737 10.52 143.123 10.5467 143.577 10.6C144.03 10.6267 144.483 10.68 144.937 10.76C145.39 10.8133 145.843 10.8933 146.297 11C146.75 11.08 147.137 11.1867 147.457 11.32L146.457 16.24ZM149.261 21.64C149.261 19.7733 149.541 18.1467 150.101 16.76C150.688 15.3467 151.448 14.1733 152.381 13.24C153.314 12.3067 154.381 11.6 155.581 11.12C156.808 10.64 158.061 10.4 159.341 10.4C162.328 10.4 164.688 11.32 166.421 13.16C168.154 14.9733 169.021 17.6533 169.021 21.2C169.021 21.5467 169.008 21.9333 168.981 22.36C168.954 22.76 168.928 23.12 168.901 23.44H155.381C155.514 24.6667 156.088 25.64 157.101 26.36C158.114 27.08 159.474 27.44 161.181 27.44C162.274 27.44 163.341 27.3467 164.381 27.16C165.448 26.9467 166.314 26.6933 166.981 26.4L167.781 31.24C167.461 31.4 167.034 31.56 166.501 31.72C165.968 31.88 165.368 32.0133 164.701 32.12C164.061 32.2533 163.368 32.36 162.621 32.44C161.874 32.52 161.128 32.56 160.381 32.56C158.488 32.56 156.834 32.28 155.421 31.72C154.034 31.16 152.874 30.4 151.941 29.44C151.034 28.4533 150.354 27.2933 149.901 25.96C149.474 24.6267 149.261 23.1867 149.261 21.64ZM163.261 19.36C163.234 18.8533 163.141 18.36 162.981 17.88C162.848 17.4 162.621 16.9733 162.301 16.6C162.008 16.2267 161.621 15.92 161.141 15.68C160.688 15.44 160.114 15.32 159.421 15.32C158.754 15.32 158.181 15.44 157.701 15.68C157.221 15.8933 156.821 16.1867 156.501 16.56C156.181 16.9333 155.928 17.3733 155.741 17.88C155.581 18.36 155.461 18.8533 155.381 19.36H163.261ZM181.66 27.84C182.247 27.84 182.807 27.8267 183.34 27.8C183.874 27.7733 184.3 27.7333 184.62 27.68V23.16C184.38 23.1067 184.02 23.0533 183.54 23C183.06 22.9467 182.62 22.92 182.22 22.92C181.66 22.92 181.127 22.96 180.62 23.04C180.14 23.0933 179.714 23.2133 179.34 23.4C178.967 23.5867 178.674 23.84 178.46 24.16C178.247 24.48 178.14 24.88 178.14 25.36C178.14 26.2933 178.447 26.9467 179.06 27.32C179.7 27.6667 180.567 27.84 181.66 27.84ZM181.18 10.4C182.94 10.4 184.407 10.6 185.58 11C186.754 11.4 187.687 11.9733 188.38 12.72C189.1 13.4667 189.607 14.3733 189.9 15.44C190.194 16.5067 190.34 17.6933 190.34 19V31.4C189.487 31.5867 188.3 31.8 186.78 32.04C185.26 32.3067 183.42 32.44 181.26 32.44C179.9 32.44 178.66 32.32 177.54 32.08C176.447 31.84 175.5 31.4533 174.7 30.92C173.9 30.36 173.287 29.64 172.86 28.76C172.434 27.88 172.22 26.8 172.22 25.52C172.22 24.2933 172.46 23.2533 172.94 22.4C173.447 21.5467 174.114 20.8667 174.94 20.36C175.767 19.8533 176.714 19.4933 177.78 19.28C178.847 19.04 179.954 18.92 181.1 18.92C181.874 18.92 182.554 18.96 183.14 19.04C183.754 19.0933 184.247 19.1733 184.62 19.28V18.72C184.62 17.7067 184.314 16.8933 183.7 16.28C183.087 15.6667 182.02 15.36 180.5 15.36C179.487 15.36 178.487 15.44 177.5 15.6C176.514 15.7333 175.66 15.9333 174.94 16.2L174.18 11.4C174.527 11.2933 174.954 11.1867 175.46 11.08C175.994 10.9467 176.567 10.84 177.18 10.76C177.794 10.6533 178.434 10.5733 179.1 10.52C179.794 10.44 180.487 10.4 181.18 10.4ZM195.53 5.72L201.49 4.76V10.96H208.65V15.92H201.49V23.32C201.49 24.5733 201.703 25.5733 202.13 26.32C202.583 27.0667 203.476 27.44 204.81 27.44C205.45 27.44 206.103 27.3867 206.77 27.28C207.463 27.1467 208.09 26.9733 208.65 26.76L209.49 31.4C208.77 31.6933 207.97 31.9467 207.09 32.16C206.21 32.3733 205.13 32.48 203.85 32.48C202.223 32.48 200.876 32.2667 199.81 31.84C198.743 31.3867 197.89 30.7733 197.25 30C196.61 29.2 196.156 28.24 195.89 27.12C195.65 26 195.53 24.76 195.53 23.4V5.72ZM232.402 21.44C232.402 23.0933 232.162 24.6133 231.682 26C231.202 27.36 230.509 28.5333 229.602 29.52C228.695 30.48 227.602 31.2267 226.322 31.76C225.069 32.2933 223.655 32.56 222.082 32.56C220.535 32.56 219.122 32.2933 217.842 31.76C216.589 31.2267 215.509 30.48 214.602 29.52C213.695 28.5333 212.989 27.36 212.482 26C211.975 24.6133 211.722 23.0933 211.722 21.44C211.722 19.7867 211.975 18.28 212.482 16.92C213.015 15.56 213.735 14.4 214.642 13.44C215.575 12.48 216.669 11.7333 217.922 11.2C219.202 10.6667 220.589 10.4 222.082 10.4C223.602 10.4 224.989 10.6667 226.242 11.2C227.522 11.7333 228.615 12.48 229.522 13.44C230.429 14.4 231.135 15.56 231.642 16.92C232.149 18.28 232.402 19.7867 232.402 21.44ZM226.322 21.44C226.322 19.6 225.949 18.16 225.202 17.12C224.482 16.0533 223.442 15.52 222.082 15.52C220.722 15.52 219.669 16.0533 218.922 17.12C218.175 18.16 217.802 19.6 217.802 21.44C217.802 23.28 218.175 24.7467 218.922 25.84C219.669 26.9067 220.722 27.44 222.082 27.44C223.442 27.44 224.482 26.9067 225.202 25.84C225.949 24.7467 226.322 23.28 226.322 21.44ZM249.699 16.24C249.165 16.1067 248.539 15.9733 247.819 15.84C247.099 15.68 246.325 15.6 245.499 15.6C245.125 15.6 244.672 15.64 244.139 15.72C243.632 15.7733 243.245 15.84 242.979 15.92V32H237.019V12.08C238.085 11.7067 239.339 11.36 240.779 11.04C242.245 10.6933 243.872 10.52 245.659 10.52C245.979 10.52 246.365 10.5467 246.819 10.6C247.272 10.6267 247.725 10.68 248.179 10.76C248.632 10.8133 249.085 10.8933 249.539 11C249.992 11.08 250.379 11.1867 250.699 11.32L249.699 16.24ZM259.934 27.72C261.027 27.72 261.8 27.6133 262.254 27.4C262.707 27.1867 262.934 26.7733 262.934 26.16C262.934 25.68 262.64 25.2667 262.054 24.92C261.467 24.5467 260.574 24.1333 259.374 23.68C258.44 23.3333 257.587 22.9733 256.814 22.6C256.067 22.2267 255.427 21.7867 254.894 21.28C254.36 20.7467 253.947 20.12 253.654 19.4C253.36 18.68 253.214 17.8133 253.214 16.8C253.214 14.8267 253.947 13.2667 255.414 12.12C256.88 10.9733 258.894 10.4 261.454 10.4C262.734 10.4 263.96 10.52 265.134 10.76C266.307 10.9733 267.24 11.2133 267.934 11.48L266.894 16.12C266.2 15.88 265.44 15.6667 264.614 15.48C263.814 15.2933 262.907 15.2 261.894 15.2C260.027 15.2 259.094 15.72 259.094 16.76C259.094 17 259.134 17.2133 259.214 17.4C259.294 17.5867 259.454 17.7733 259.694 17.96C259.934 18.12 260.254 18.3067 260.654 18.52C261.08 18.7067 261.614 18.92 262.254 19.16C263.56 19.64 264.64 20.12 265.494 20.6C266.347 21.0533 267.014 21.56 267.494 22.12C268 22.6533 268.347 23.2533 268.534 23.92C268.747 24.5867 268.854 25.36 268.854 26.24C268.854 28.32 268.067 29.8933 266.494 30.96C264.947 32.0267 262.747 32.56 259.894 32.56C258.027 32.56 256.467 32.4 255.214 32.08C253.987 31.76 253.134 31.4933 252.654 31.28L253.654 26.44C254.667 26.84 255.707 27.16 256.774 27.4C257.84 27.6133 258.894 27.72 259.934 27.72ZM288.957 27.72C290.051 27.72 290.824 27.6133 291.277 27.4C291.731 27.1867 291.957 26.7733 291.957 26.16C291.957 25.68 291.664 25.2667 291.077 24.92C290.491 24.5467 289.597 24.1333 288.397 23.68C287.464 23.3333 286.611 22.9733 285.837 22.6C285.091 22.2267 284.451 21.7867 283.917 21.28C283.384 20.7467 282.971 20.12 282.677 19.4C282.384 18.68 282.237 17.8133 282.237 16.8C282.237 14.8267 282.971 13.2667 284.437 12.12C285.904 10.9733 287.917 10.4 290.477 10.4C291.757 10.4 292.984 10.52 294.157 10.76C295.331 10.9733 296.264 11.2133 296.957 11.48L295.917 16.12C295.224 15.88 294.464 15.6667 293.637 15.48C292.837 15.2933 291.931 15.2 290.917 15.2C289.051 15.2 288.117 15.72 288.117 16.76C288.117 17 288.157 17.2133 288.237 17.4C288.317 17.5867 288.477 17.7733 288.717 17.96C288.957 18.12 289.277 18.3067 289.677 18.52C290.104 18.7067 290.637 18.92 291.277 19.16C292.584 19.64 293.664 20.12 294.517 20.6C295.371 21.0533 296.037 21.56 296.517 22.12C297.024 22.6533 297.371 23.2533 297.557 23.92C297.771 24.5867 297.877 25.36 297.877 26.24C297.877 28.32 297.091 29.8933 295.517 30.96C293.971 32.0267 291.771 32.56 288.917 32.56C287.051 32.56 285.491 32.4 284.237 32.08C283.011 31.76 282.157 31.4933 281.677 31.28L282.677 26.44C283.691 26.84 284.731 27.16 285.797 27.4C286.864 27.6133 287.917 27.72 288.957 27.72ZM310.371 27.84C310.958 27.84 311.518 27.8267 312.051 27.8C312.585 27.7733 313.011 27.7333 313.331 27.68V23.16C313.091 23.1067 312.731 23.0533 312.251 23C311.771 22.9467 311.331 22.92 310.931 22.92C310.371 22.92 309.838 22.96 309.331 23.04C308.851 23.0933 308.425 23.2133 308.051 23.4C307.678 23.5867 307.385 23.84 307.171 24.16C306.958 24.48 306.851 24.88 306.851 25.36C306.851 26.2933 307.158 26.9467 307.771 27.32C308.411 27.6667 309.278 27.84 310.371 27.84ZM309.891 10.4C311.651 10.4 313.118 10.6 314.291 11C315.465 11.4 316.398 11.9733 317.091 12.72C317.811 13.4667 318.318 14.3733 318.611 15.44C318.905 16.5067 319.051 17.6933 319.051 19V31.4C318.198 31.5867 317.011 31.8 315.491 32.04C313.971 32.3067 312.131 32.44 309.971 32.44C308.611 32.44 307.371 32.32 306.251 32.08C305.158 31.84 304.211 31.4533 303.411 30.92C302.611 30.36 301.998 29.64 301.571 28.76C301.145 27.88 300.931 26.8 300.931 25.52C300.931 24.2933 301.171 23.2533 301.651 22.4C302.158 21.5467 302.825 20.8667 303.651 20.36C304.478 19.8533 305.425 19.4933 306.491 19.28C307.558 19.04 308.665 18.92 309.811 18.92C310.585 18.92 311.265 18.96 311.851 19.04C312.465 19.0933 312.958 19.1733 313.331 19.28V18.72C313.331 17.7067 313.025 16.8933 312.411 16.28C311.798 15.6667 310.731 15.36 309.211 15.36C308.198 15.36 307.198 15.44 306.211 15.6C305.225 15.7333 304.371 15.9333 303.651 16.2L302.891 11.4C303.238 11.2933 303.665 11.1867 304.171 11.08C304.705 10.9467 305.278 10.84 305.891 10.76C306.505 10.6533 307.145 10.5733 307.811 10.52C308.505 10.44 309.198 10.4 309.891 10.4ZM342.613 10.96C341.413 15.0133 340.159 18.8133 338.853 22.36C337.546 25.9067 336.119 29.3467 334.573 32.68C334.013 33.88 333.453 34.8933 332.893 35.72C332.333 36.5733 331.719 37.2667 331.053 37.8C330.386 38.36 329.626 38.76 328.773 39C327.946 39.2667 326.973 39.4 325.853 39.4C324.919 39.4 324.053 39.3067 323.253 39.12C322.479 38.96 321.839 38.7733 321.333 38.56L322.373 33.8C322.986 34.0133 323.533 34.16 324.013 34.24C324.493 34.32 324.999 34.36 325.533 34.36C326.599 34.36 327.413 34.0667 327.973 33.48C328.559 32.92 329.053 32.1333 329.453 31.12C328.093 28.4533 326.733 25.4667 325.373 22.16C324.013 18.8267 322.733 15.0933 321.533 10.96H327.853C328.119 12 328.426 13.1333 328.773 14.36C329.146 15.56 329.533 16.7867 329.933 18.04C330.333 19.2667 330.733 20.4667 331.133 21.64C331.559 22.8133 331.959 23.88 332.333 24.84C332.679 23.88 333.039 22.8133 333.413 21.64C333.786 20.4667 334.146 19.2667 334.493 18.04C334.866 16.7867 335.213 15.56 335.533 14.36C335.879 13.1333 336.186 12 336.453 10.96H342.613ZM351.048 8.72C350.088 8.72 349.181 8.84 348.328 9.08C347.474 9.32 346.528 9.70667 345.488 10.24L343.808 5.72C344.848 5.05333 346.074 4.54666 347.488 4.2C348.901 3.82666 350.288 3.64 351.648 3.64C353.354 3.64 354.754 3.86666 355.848 4.32C356.968 4.77333 357.848 5.34667 358.488 6.04C359.128 6.73333 359.568 7.49333 359.808 8.32C360.074 9.14667 360.208 9.93333 360.208 10.68C360.208 11.4267 360.088 12.12 359.848 12.76C359.634 13.3733 359.354 13.9467 359.008 14.48C358.661 15.0133 358.261 15.52 357.808 16C357.354 16.48 356.914 16.9333 356.488 17.36C356.168 17.68 355.834 18.0267 355.488 18.4C355.141 18.7467 354.821 19.12 354.528 19.52C354.261 19.92 354.034 20.3467 353.848 20.8C353.661 21.2267 353.568 21.6667 353.568 22.12C353.568 22.2267 353.568 22.3867 353.568 22.6C353.568 22.8133 353.581 23 353.608 23.16H348.328C348.274 22.8933 348.234 22.6 348.208 22.28C348.208 21.9333 348.208 21.64 348.208 21.4C348.208 20.6533 348.301 19.9867 348.488 19.4C348.674 18.7867 348.914 18.2267 349.208 17.72C349.528 17.1867 349.888 16.6933 350.288 16.24C350.688 15.7867 351.101 15.3467 351.528 14.92C352.141 14.3067 352.701 13.7067 353.208 13.12C353.714 12.5067 353.968 11.8133 353.968 11.04C353.968 10.4 353.714 9.85333 353.208 9.4C352.728 8.94667 352.008 8.72 351.048 8.72ZM354.768 28.84C354.768 30.0133 354.381 30.92 353.608 31.56C352.861 32.2 352.008 32.52 351.048 32.52C350.088 32.52 349.221 32.2 348.448 31.56C347.701 30.92 347.328 30.0133 347.328 28.84C347.328 27.6667 347.701 26.76 348.448 26.12C349.221 25.48 350.088 25.16 351.048 25.16C352.008 25.16 352.861 25.48 353.608 26.12C354.381 26.76 354.768 27.6667 354.768 28.84Z" fill="url(#paint0_linear_6_147)"/>
<defs>
<linearGradient id="paint0_linear_6_147" x1="362" y1="5" x2="-8.81949e-06" y2="38" gradientUnits="userSpaceOnUse">
<stop stop-color="#0047FF"/>
<stop offset="1" stop-color="#DB00FF"/>
</linearGradient>
</defs>
</svg>
