<svg width="300" height="33" viewBox="0 0 300 33" fill="none" xmlns="http://www.w3.org/2000/svg">
<path d="M21.76 32C21.4667 31.04 21.1333 30.0533 20.76 29.04C20.4133 28.0267 20.0667 27.0133 19.72 26H8.92C8.57333 27.0133 8.21333 28.0267 7.84 29.04C7.49333 30.0533 7.17333 31.04 6.88 32H0.4C1.44 29.0133 2.42667 26.2533 3.36 23.72C4.29333 21.1867 5.2 18.8 6.08 16.56C6.98667 14.32 7.86667 12.2 8.72 10.2C9.6 8.17333 10.5067 6.2 11.44 4.28H17.4C18.3067 6.2 19.2 8.17333 20.08 10.2C20.96 12.2 21.84 14.32 22.72 16.56C23.6267 18.8 24.5467 21.1867 25.48 23.72C26.4133 26.2533 27.4 29.0133 28.44 32H21.76ZM14.28 10.56C14.1467 10.96 13.9467 11.5067 13.68 12.2C13.4133 12.8933 13.1067 13.6933 12.76 14.6C12.4133 15.5067 12.0267 16.5067 11.6 17.6C11.2 18.6933 10.7867 19.84 10.36 21.04H18.24C17.8133 19.84 17.4 18.6933 17 17.6C16.6 16.5067 16.2133 15.5067 15.84 14.6C15.4933 13.6933 15.1867 12.8933 14.92 12.2C14.6533 11.5067 14.44 10.96 14.28 10.56ZM45.1081 21.32C45.1081 17.48 43.6948 15.56 40.8681 15.56C40.2548 15.56 39.6415 15.64 39.0281 15.8C38.4415 15.96 37.9615 16.16 37.5881 16.4V27.24C37.8815 27.2933 38.2548 27.3467 38.7081 27.4C39.1615 27.4267 39.6548 27.44 40.1881 27.44C41.8148 27.44 43.0415 26.88 43.8681 25.76C44.6948 24.64 45.1081 23.16 45.1081 21.32ZM51.1881 21.48C51.1881 23.16 50.9348 24.68 50.4281 26.04C49.9481 27.4 49.2415 28.56 48.3081 29.52C47.3748 30.48 46.2281 31.2267 44.8681 31.76C43.5081 32.2667 41.9615 32.52 40.2281 32.52C39.5081 32.52 38.7481 32.48 37.9481 32.4C37.1748 32.3467 36.4015 32.2667 35.6281 32.16C34.8815 32.0533 34.1615 31.9333 33.4681 31.8C32.7748 31.64 32.1615 31.48 31.6281 31.32V1.92L37.5881 0.959999V11.44C38.2548 11.1467 38.9481 10.92 39.6681 10.76C40.3881 10.6 41.1615 10.52 41.9881 10.52C43.4815 10.52 44.8015 10.7867 45.9481 11.32C47.0948 11.8267 48.0548 12.56 48.8281 13.52C49.6015 14.48 50.1881 15.64 50.5881 17C50.9881 18.3333 51.1881 19.8267 51.1881 21.48ZM75.4488 21.44C75.4488 23.0933 75.2088 24.6133 74.7288 26C74.2488 27.36 73.5554 28.5333 72.6488 29.52C71.7421 30.48 70.6488 31.2267 69.3688 31.76C68.1154 32.2933 66.7021 32.56 65.1288 32.56C63.5821 32.56 62.1688 32.2933 60.8888 31.76C59.6354 31.2267 58.5554 30.48 57.6488 29.52C56.7421 28.5333 56.0354 27.36 55.5288 26C55.0221 24.6133 54.7688 23.0933 54.7688 21.44C54.7688 19.7867 55.0221 18.28 55.5288 16.92C56.0621 15.56 56.7821 14.4 57.6888 13.44C58.6221 12.48 59.7154 11.7333 60.9688 11.2C62.2488 10.6667 63.6354 10.4 65.1288 10.4C66.6488 10.4 68.0354 10.6667 69.2888 11.2C70.5688 11.7333 71.6621 12.48 72.5688 13.44C73.4754 14.4 74.1821 15.56 74.6888 16.92C75.1954 18.28 75.4488 19.7867 75.4488 21.44ZM69.3688 21.44C69.3688 19.6 68.9954 18.16 68.2488 17.12C67.5288 16.0533 66.4888 15.52 65.1288 15.52C63.7688 15.52 62.7154 16.0533 61.9688 17.12C61.2221 18.16 60.8488 19.6 60.8488 21.44C60.8488 23.28 61.2221 24.7467 61.9688 25.84C62.7154 26.9067 63.7688 27.44 65.1288 27.44C66.4888 27.44 67.5288 26.9067 68.2488 25.84C68.9954 24.7467 69.3688 23.28 69.3688 21.44ZM98.0256 31.28C97.0123 31.5733 95.7056 31.84 94.1056 32.08C92.5056 32.3467 90.8256 32.48 89.0656 32.48C87.279 32.48 85.7856 32.24 84.5856 31.76C83.4123 31.28 82.479 30.6133 81.7856 29.76C81.0923 28.88 80.599 27.84 80.3056 26.64C80.0123 25.44 79.8656 24.12 79.8656 22.68V10.96H85.8256V21.96C85.8256 23.88 86.079 25.2667 86.5856 26.12C87.0923 26.9733 88.039 27.4 89.4256 27.4C89.8523 27.4 90.3056 27.3867 90.7856 27.36C91.2656 27.3067 91.6923 27.2533 92.0656 27.2V10.96H98.0256V31.28ZM103.42 5.72L109.38 4.76V10.96H116.54V15.92H109.38V23.32C109.38 24.5733 109.594 25.5733 110.02 26.32C110.474 27.0667 111.367 27.44 112.7 27.44C113.34 27.44 113.994 27.3867 114.66 27.28C115.354 27.1467 115.98 26.9733 116.54 26.76L117.38 31.4C116.66 31.6933 115.86 31.9467 114.98 32.16C114.1 32.3733 113.02 32.48 111.74 32.48C110.114 32.48 108.767 32.2667 107.7 31.84C106.634 31.3867 105.78 30.7733 105.14 30C104.5 29.2 104.047 28.24 103.78 27.12C103.54 26 103.42 24.76 103.42 23.4V5.72ZM131.403 32V4.28H150.123V9.52H137.643V14.96H148.723V20.08H137.643V26.76H151.043V32H131.403ZM164.48 17.36L168.64 10.96H174.8L167.6 21.08C169.2 23.08 170.654 25.0267 171.96 26.92C173.267 28.8133 174.307 30.5067 175.08 32H168.68C168.467 31.6 168.2 31.1067 167.88 30.52C167.56 29.9067 167.2 29.28 166.8 28.64C166.4 27.9733 165.974 27.32 165.52 26.68C165.094 26.0133 164.667 25.4133 164.24 24.88C163.84 25.3867 163.427 25.9467 163 26.56C162.6 27.1733 162.214 27.8 161.84 28.44C161.467 29.0533 161.094 29.6667 160.72 30.28C160.374 30.8933 160.067 31.4667 159.8 32H153.72C154.04 31.3333 154.48 30.5467 155.04 29.64C155.6 28.7333 156.2 27.8 156.84 26.84C157.507 25.8533 158.2 24.88 158.92 23.92C159.64 22.9333 160.347 22.0133 161.04 21.16C159.84 19.48 158.64 17.7867 157.44 16.08C156.24 14.3467 155.054 12.64 153.88 10.96H160.32L164.48 17.36ZM176.292 21.64C176.292 19.7733 176.572 18.1467 177.132 16.76C177.719 15.3467 178.479 14.1733 179.412 13.24C180.346 12.3067 181.412 11.6 182.612 11.12C183.839 10.64 185.092 10.4 186.372 10.4C189.359 10.4 191.719 11.32 193.452 13.16C195.186 14.9733 196.052 17.6533 196.052 21.2C196.052 21.5467 196.039 21.9333 196.012 22.36C195.986 22.76 195.959 23.12 195.932 23.44H182.412C182.546 24.6667 183.119 25.64 184.132 26.36C185.146 27.08 186.506 27.44 188.212 27.44C189.306 27.44 190.372 27.3467 191.412 27.16C192.479 26.9467 193.346 26.6933 194.012 26.4L194.812 31.24C194.492 31.4 194.066 31.56 193.532 31.72C192.999 31.88 192.399 32.0133 191.732 32.12C191.092 32.2533 190.399 32.36 189.652 32.44C188.906 32.52 188.159 32.56 187.412 32.56C185.519 32.56 183.866 32.28 182.452 31.72C181.066 31.16 179.906 30.4 178.972 29.44C178.066 28.4533 177.386 27.2933 176.932 25.96C176.506 24.6267 176.292 23.1867 176.292 21.64ZM190.292 19.36C190.266 18.8533 190.172 18.36 190.012 17.88C189.879 17.4 189.652 16.9733 189.332 16.6C189.039 16.2267 188.652 15.92 188.172 15.68C187.719 15.44 187.146 15.32 186.452 15.32C185.786 15.32 185.212 15.44 184.732 15.68C184.252 15.8933 183.852 16.1867 183.532 16.56C183.212 16.9333 182.959 17.3733 182.772 17.88C182.612 18.36 182.492 18.8533 182.412 19.36H190.292ZM199.652 21.48C199.652 19.96 199.892 18.5333 200.372 17.2C200.878 15.84 201.598 14.6667 202.532 13.68C203.465 12.6667 204.598 11.8667 205.932 11.28C207.265 10.6933 208.785 10.4 210.492 10.4C211.612 10.4 212.638 10.5067 213.572 10.72C214.505 10.9067 215.412 11.1867 216.292 11.56L215.052 16.32C214.492 16.1067 213.878 15.92 213.212 15.76C212.545 15.6 211.798 15.52 210.972 15.52C209.212 15.52 207.892 16.0667 207.012 17.16C206.158 18.2533 205.732 19.6933 205.732 21.48C205.732 23.3733 206.132 24.84 206.932 25.88C207.758 26.92 209.185 27.44 211.212 27.44C211.932 27.44 212.705 27.3733 213.532 27.24C214.358 27.1067 215.118 26.8933 215.812 26.6L216.652 31.48C215.958 31.7733 215.092 32.0267 214.052 32.24C213.012 32.4533 211.865 32.56 210.612 32.56C208.692 32.56 207.038 32.28 205.652 31.72C204.265 31.1333 203.118 30.3467 202.212 29.36C201.332 28.3733 200.678 27.2133 200.252 25.88C199.852 24.52 199.652 23.0533 199.652 21.48ZM238.612 31.28C237.598 31.5733 236.292 31.84 234.692 32.08C233.092 32.3467 231.412 32.48 229.652 32.48C227.865 32.48 226.372 32.24 225.172 31.76C223.998 31.28 223.065 30.6133 222.372 29.76C221.678 28.88 221.185 27.84 220.892 26.64C220.598 25.44 220.452 24.12 220.452 22.68V10.96H226.412V21.96C226.412 23.88 226.665 25.2667 227.172 26.12C227.678 26.9733 228.625 27.4 230.012 27.4C230.438 27.4 230.892 27.3867 231.372 27.36C231.852 27.3067 232.278 27.2533 232.652 27.2V10.96H238.612V31.28ZM244.006 5.72L249.966 4.76V10.96H257.126V15.92H249.966V23.32C249.966 24.5733 250.18 25.5733 250.606 26.32C251.06 27.0667 251.953 27.44 253.286 27.44C253.926 27.44 254.58 27.3867 255.246 27.28C255.94 27.1467 256.566 26.9733 257.126 26.76L257.966 31.4C257.246 31.6933 256.446 31.9467 255.566 32.16C254.686 32.3733 253.606 32.48 252.326 32.48C250.7 32.48 249.353 32.2667 248.286 31.84C247.22 31.3867 246.366 30.7733 245.726 30C245.086 29.2 244.633 28.24 244.366 27.12C244.126 26 244.006 24.76 244.006 23.4V5.72ZM280.878 21.44C280.878 23.0933 280.638 24.6133 280.158 26C279.678 27.36 278.985 28.5333 278.078 29.52C277.172 30.48 276.078 31.2267 274.798 31.76C273.545 32.2933 272.132 32.56 270.558 32.56C269.012 32.56 267.598 32.2933 266.318 31.76C265.065 31.2267 263.985 30.48 263.078 29.52C262.172 28.5333 261.465 27.36 260.958 26C260.452 24.6133 260.198 23.0933 260.198 21.44C260.198 19.7867 260.452 18.28 260.958 16.92C261.492 15.56 262.212 14.4 263.118 13.44C264.052 12.48 265.145 11.7333 266.398 11.2C267.678 10.6667 269.065 10.4 270.558 10.4C272.078 10.4 273.465 10.6667 274.718 11.2C275.998 11.7333 277.092 12.48 277.998 13.44C278.905 14.4 279.612 15.56 280.118 16.92C280.625 18.28 280.878 19.7867 280.878 21.44ZM274.798 21.44C274.798 19.6 274.425 18.16 273.678 17.12C272.958 16.0533 271.918 15.52 270.558 15.52C269.198 15.52 268.145 16.0533 267.398 17.12C266.652 18.16 266.278 19.6 266.278 21.44C266.278 23.28 266.652 24.7467 267.398 25.84C268.145 26.9067 269.198 27.44 270.558 27.44C271.918 27.44 272.958 26.9067 273.678 25.84C274.425 24.7467 274.798 23.28 274.798 21.44ZM298.175 16.24C297.642 16.1067 297.015 15.9733 296.295 15.84C295.575 15.68 294.802 15.6 293.975 15.6C293.602 15.6 293.149 15.64 292.615 15.72C292.109 15.7733 291.722 15.84 291.455 15.92V32H285.495V12.08C286.562 11.7067 287.815 11.36 289.255 11.04C290.722 10.6933 292.349 10.52 294.135 10.52C294.455 10.52 294.842 10.5467 295.295 10.6C295.749 10.6267 296.202 10.68 296.655 10.76C297.109 10.8133 297.562 10.8933 298.015 11C298.469 11.08 298.855 11.1867 299.175 11.32L298.175 16.24Z" fill="white"/>
<path d="M21.76 32C21.4667 31.04 21.1333 30.0533 20.76 29.04C20.4133 28.0267 20.0667 27.0133 19.72 26H8.92C8.57333 27.0133 8.21333 28.0267 7.84 29.04C7.49333 30.0533 7.17333 31.04 6.88 32H0.4C1.44 29.0133 2.42667 26.2533 3.36 23.72C4.29333 21.1867 5.2 18.8 6.08 16.56C6.98667 14.32 7.86667 12.2 8.72 10.2C9.6 8.17333 10.5067 6.2 11.44 4.28H17.4C18.3067 6.2 19.2 8.17333 20.08 10.2C20.96 12.2 21.84 14.32 22.72 16.56C23.6267 18.8 24.5467 21.1867 25.48 23.72C26.4133 26.2533 27.4 29.0133 28.44 32H21.76ZM14.28 10.56C14.1467 10.96 13.9467 11.5067 13.68 12.2C13.4133 12.8933 13.1067 13.6933 12.76 14.6C12.4133 15.5067 12.0267 16.5067 11.6 17.6C11.2 18.6933 10.7867 19.84 10.36 21.04H18.24C17.8133 19.84 17.4 18.6933 17 17.6C16.6 16.5067 16.2133 15.5067 15.84 14.6C15.4933 13.6933 15.1867 12.8933 14.92 12.2C14.6533 11.5067 14.44 10.96 14.28 10.56ZM45.1081 21.32C45.1081 17.48 43.6948 15.56 40.8681 15.56C40.2548 15.56 39.6415 15.64 39.0281 15.8C38.4415 15.96 37.9615 16.16 37.5881 16.4V27.24C37.8815 27.2933 38.2548 27.3467 38.7081 27.4C39.1615 27.4267 39.6548 27.44 40.1881 27.44C41.8148 27.44 43.0415 26.88 43.8681 25.76C44.6948 24.64 45.1081 23.16 45.1081 21.32ZM51.1881 21.48C51.1881 23.16 50.9348 24.68 50.4281 26.04C49.9481 27.4 49.2415 28.56 48.3081 29.52C47.3748 30.48 46.2281 31.2267 44.8681 31.76C43.5081 32.2667 41.9615 32.52 40.2281 32.52C39.5081 32.52 38.7481 32.48 37.9481 32.4C37.1748 32.3467 36.4015 32.2667 35.6281 32.16C34.8815 32.0533 34.1615 31.9333 33.4681 31.8C32.7748 31.64 32.1615 31.48 31.6281 31.32V1.92L37.5881 0.959999V11.44C38.2548 11.1467 38.9481 10.92 39.6681 10.76C40.3881 10.6 41.1615 10.52 41.9881 10.52C43.4815 10.52 44.8015 10.7867 45.9481 11.32C47.0948 11.8267 48.0548 12.56 48.8281 13.52C49.6015 14.48 50.1881 15.64 50.5881 17C50.9881 18.3333 51.1881 19.8267 51.1881 21.48ZM75.4488 21.44C75.4488 23.0933 75.2088 24.6133 74.7288 26C74.2488 27.36 73.5554 28.5333 72.6488 29.52C71.7421 30.48 70.6488 31.2267 69.3688 31.76C68.1154 32.2933 66.7021 32.56 65.1288 32.56C63.5821 32.56 62.1688 32.2933 60.8888 31.76C59.6354 31.2267 58.5554 30.48 57.6488 29.52C56.7421 28.5333 56.0354 27.36 55.5288 26C55.0221 24.6133 54.7688 23.0933 54.7688 21.44C54.7688 19.7867 55.0221 18.28 55.5288 16.92C56.0621 15.56 56.7821 14.4 57.6888 13.44C58.6221 12.48 59.7154 11.7333 60.9688 11.2C62.2488 10.6667 63.6354 10.4 65.1288 10.4C66.6488 10.4 68.0354 10.6667 69.2888 11.2C70.5688 11.7333 71.6621 12.48 72.5688 13.44C73.4754 14.4 74.1821 15.56 74.6888 16.92C75.1954 18.28 75.4488 19.7867 75.4488 21.44ZM69.3688 21.44C69.3688 19.6 68.9954 18.16 68.2488 17.12C67.5288 16.0533 66.4888 15.52 65.1288 15.52C63.7688 15.52 62.7154 16.0533 61.9688 17.12C61.2221 18.16 60.8488 19.6 60.8488 21.44C60.8488 23.28 61.2221 24.7467 61.9688 25.84C62.7154 26.9067 63.7688 27.44 65.1288 27.44C66.4888 27.44 67.5288 26.9067 68.2488 25.84C68.9954 24.7467 69.3688 23.28 69.3688 21.44ZM98.0256 31.28C97.0123 31.5733 95.7056 31.84 94.1056 32.08C92.5056 32.3467 90.8256 32.48 89.0656 32.48C87.279 32.48 85.7856 32.24 84.5856 31.76C83.4123 31.28 82.479 30.6133 81.7856 29.76C81.0923 28.88 80.599 27.84 80.3056 26.64C80.0123 25.44 79.8656 24.12 79.8656 22.68V10.96H85.8256V21.96C85.8256 23.88 86.079 25.2667 86.5856 26.12C87.0923 26.9733 88.039 27.4 89.4256 27.4C89.8523 27.4 90.3056 27.3867 90.7856 27.36C91.2656 27.3067 91.6923 27.2533 92.0656 27.2V10.96H98.0256V31.28ZM103.42 5.72L109.38 4.76V10.96H116.54V15.92H109.38V23.32C109.38 24.5733 109.594 25.5733 110.02 26.32C110.474 27.0667 111.367 27.44 112.7 27.44C113.34 27.44 113.994 27.3867 114.66 27.28C115.354 27.1467 115.98 26.9733 116.54 26.76L117.38 31.4C116.66 31.6933 115.86 31.9467 114.98 32.16C114.1 32.3733 113.02 32.48 111.74 32.48C110.114 32.48 108.767 32.2667 107.7 31.84C106.634 31.3867 105.78 30.7733 105.14 30C104.5 29.2 104.047 28.24 103.78 27.12C103.54 26 103.42 24.76 103.42 23.4V5.72ZM131.403 32V4.28H150.123V9.52H137.643V14.96H148.723V20.08H137.643V26.76H151.043V32H131.403ZM164.48 17.36L168.64 10.96H174.8L167.6 21.08C169.2 23.08 170.654 25.0267 171.96 26.92C173.267 28.8133 174.307 30.5067 175.08 32H168.68C168.467 31.6 168.2 31.1067 167.88 30.52C167.56 29.9067 167.2 29.28 166.8 28.64C166.4 27.9733 165.974 27.32 165.52 26.68C165.094 26.0133 164.667 25.4133 164.24 24.88C163.84 25.3867 163.427 25.9467 163 26.56C162.6 27.1733 162.214 27.8 161.84 28.44C161.467 29.0533 161.094 29.6667 160.72 30.28C160.374 30.8933 160.067 31.4667 159.8 32H153.72C154.04 31.3333 154.48 30.5467 155.04 29.64C155.6 28.7333 156.2 27.8 156.84 26.84C157.507 25.8533 158.2 24.88 158.92 23.92C159.64 22.9333 160.347 22.0133 161.04 21.16C159.84 19.48 158.64 17.7867 157.44 16.08C156.24 14.3467 155.054 12.64 153.88 10.96H160.32L164.48 17.36ZM176.292 21.64C176.292 19.7733 176.572 18.1467 177.132 16.76C177.719 15.3467 178.479 14.1733 179.412 13.24C180.346 12.3067 181.412 11.6 182.612 11.12C183.839 10.64 185.092 10.4 186.372 10.4C189.359 10.4 191.719 11.32 193.452 13.16C195.186 14.9733 196.052 17.6533 196.052 21.2C196.052 21.5467 196.039 21.9333 196.012 22.36C195.986 22.76 195.959 23.12 195.932 23.44H182.412C182.546 24.6667 183.119 25.64 184.132 26.36C185.146 27.08 186.506 27.44 188.212 27.44C189.306 27.44 190.372 27.3467 191.412 27.16C192.479 26.9467 193.346 26.6933 194.012 26.4L194.812 31.24C194.492 31.4 194.066 31.56 193.532 31.72C192.999 31.88 192.399 32.0133 191.732 32.12C191.092 32.2533 190.399 32.36 189.652 32.44C188.906 32.52 188.159 32.56 187.412 32.56C185.519 32.56 183.866 32.28 182.452 31.72C181.066 31.16 179.906 30.4 178.972 29.44C178.066 28.4533 177.386 27.2933 176.932 25.96C176.506 24.6267 176.292 23.1867 176.292 21.64ZM190.292 19.36C190.266 18.8533 190.172 18.36 190.012 17.88C189.879 17.4 189.652 16.9733 189.332 16.6C189.039 16.2267 188.652 15.92 188.172 15.68C187.719 15.44 187.146 15.32 186.452 15.32C185.786 15.32 185.212 15.44 184.732 15.68C184.252 15.8933 183.852 16.1867 183.532 16.56C183.212 16.9333 182.959 17.3733 182.772 17.88C182.612 18.36 182.492 18.8533 182.412 19.36H190.292ZM199.652 21.48C199.652 19.96 199.892 18.5333 200.372 17.2C200.878 15.84 201.598 14.6667 202.532 13.68C203.465 12.6667 204.598 11.8667 205.932 11.28C207.265 10.6933 208.785 10.4 210.492 10.4C211.612 10.4 212.638 10.5067 213.572 10.72C214.505 10.9067 215.412 11.1867 216.292 11.56L215.052 16.32C214.492 16.1067 213.878 15.92 213.212 15.76C212.545 15.6 211.798 15.52 210.972 15.52C209.212 15.52 207.892 16.0667 207.012 17.16C206.158 18.2533 205.732 19.6933 205.732 21.48C205.732 23.3733 206.132 24.84 206.932 25.88C207.758 26.92 209.185 27.44 211.212 27.44C211.932 27.44 212.705 27.3733 213.532 27.24C214.358 27.1067 215.118 26.8933 215.812 26.6L216.652 31.48C215.958 31.7733 215.092 32.0267 214.052 32.24C213.012 32.4533 211.865 32.56 210.612 32.56C208.692 32.56 207.038 32.28 205.652 31.72C204.265 31.1333 203.118 30.3467 202.212 29.36C201.332 28.3733 200.678 27.2133 200.252 25.88C199.852 24.52 199.652 23.0533 199.652 21.48ZM238.612 31.28C237.598 31.5733 236.292 31.84 234.692 32.08C233.092 32.3467 231.412 32.48 229.652 32.48C227.865 32.48 226.372 32.24 225.172 31.76C223.998 31.28 223.065 30.6133 222.372 29.76C221.678 28.88 221.185 27.84 220.892 26.64C220.598 25.44 220.452 24.12 220.452 22.68V10.96H226.412V21.96C226.412 23.88 226.665 25.2667 227.172 26.12C227.678 26.9733 228.625 27.4 230.012 27.4C230.438 27.4 230.892 27.3867 231.372 27.36C231.852 27.3067 232.278 27.2533 232.652 27.2V10.96H238.612V31.28ZM244.006 5.72L249.966 4.76V10.96H257.126V15.92H249.966V23.32C249.966 24.5733 250.18 25.5733 250.606 26.32C251.06 27.0667 251.953 27.44 253.286 27.44C253.926 27.44 254.58 27.3867 255.246 27.28C255.94 27.1467 256.566 26.9733 257.126 26.76L257.966 31.4C257.246 31.6933 256.446 31.9467 255.566 32.16C254.686 32.3733 253.606 32.48 252.326 32.48C250.7 32.48 249.353 32.2667 248.286 31.84C247.22 31.3867 246.366 30.7733 245.726 30C245.086 29.2 244.633 28.24 244.366 27.12C244.126 26 244.006 24.76 244.006 23.4V5.72ZM280.878 21.44C280.878 23.0933 280.638 24.6133 280.158 26C279.678 27.36 278.985 28.5333 278.078 29.52C277.172 30.48 276.078 31.2267 274.798 31.76C273.545 32.2933 272.132 32.56 270.558 32.56C269.012 32.56 267.598 32.2933 266.318 31.76C265.065 31.2267 263.985 30.48 263.078 29.52C262.172 28.5333 261.465 27.36 260.958 26C260.452 24.6133 260.198 23.0933 260.198 21.44C260.198 19.7867 260.452 18.28 260.958 16.92C261.492 15.56 262.212 14.4 263.118 13.44C264.052 12.48 265.145 11.7333 266.398 11.2C267.678 10.6667 269.065 10.4 270.558 10.4C272.078 10.4 273.465 10.6667 274.718 11.2C275.998 11.7333 277.092 12.48 277.998 13.44C278.905 14.4 279.612 15.56 280.118 16.92C280.625 18.28 280.878 19.7867 280.878 21.44ZM274.798 21.44C274.798 19.6 274.425 18.16 273.678 17.12C272.958 16.0533 271.918 15.52 270.558 15.52C269.198 15.52 268.145 16.0533 267.398 17.12C266.652 18.16 266.278 19.6 266.278 21.44C266.278 23.28 266.652 24.7467 267.398 25.84C268.145 26.9067 269.198 27.44 270.558 27.44C271.918 27.44 272.958 26.9067 273.678 25.84C274.425 24.7467 274.798 23.28 274.798 21.44ZM298.175 16.24C297.642 16.1067 297.015 15.9733 296.295 15.84C295.575 15.68 294.802 15.6 293.975 15.6C293.602 15.6 293.149 15.64 292.615 15.72C292.109 15.7733 291.722 15.84 291.455 15.92V32H285.495V12.08C286.562 11.7067 287.815 11.36 289.255 11.04C290.722 10.6933 292.349 10.52 294.135 10.52C294.455 10.52 294.842 10.5467 295.295 10.6C295.749 10.6267 296.202 10.68 296.655 10.76C297.109 10.8133 297.562 10.8933 298.015 11C298.469 11.08 298.855 11.1867 299.175 11.32L298.175 16.24Z" fill="url(#paint0_linear_6_136)"/>
<defs>
<linearGradient id="paint0_linear_6_136" x1="-4.61539" y1="-12" x2="481.632" y2="56.3953" gradientUnits="userSpaceOnUse">
<stop stop-color="#DB00FF"/>
<stop offset="1" stop-color="#0047FF"/>
</linearGradient>
</defs>
</svg>
