<svg width="188" height="28" viewBox="0 0 188 28" fill="none" xmlns="http://www.w3.org/2000/svg">
<path d="M0.6875 27V0.818181H19.5568V6.54545H7.79545V11.0455H18.5852V16.7727H7.79545V21.2727H19.5057V27H0.6875ZM29.2695 7.36364L32.1332 13.4489L35.1502 7.36364H42.1559L36.8889 17.1818L42.4116 27H35.457L32.1332 20.7614L28.9116 27H21.8548L27.4286 17.1818L22.2127 7.36364H29.2695ZM50.75 7.36364L53.6136 13.4489L56.6307 7.36364H63.6364L58.3693 17.1818L63.892 27H56.9375L53.6136 20.7614L50.392 27H43.3352L48.9091 17.1818L43.6932 7.36364H50.75ZM84.0941 13.7557H77.5998C77.5657 13.3551 77.4251 13.0099 77.1779 12.7202C76.9308 12.4304 76.6112 12.2088 76.2191 12.0554C75.8356 11.8935 75.4094 11.8125 74.9407 11.8125C74.3356 11.8125 73.8157 11.9233 73.381 12.1449C72.9464 12.3665 72.7333 12.6818 72.7418 13.0909C72.7333 13.3807 72.8569 13.6491 73.1126 13.8963C73.3768 14.1435 73.8839 14.3352 74.6339 14.4716L78.6225 15.1875C80.6339 15.554 82.1296 16.1719 83.1097 17.0412C84.0984 17.902 84.5969 19.0568 84.6055 20.5057C84.5969 21.9034 84.1793 23.1179 83.3526 24.1491C82.5344 25.1719 81.4137 25.9645 79.9904 26.527C78.5756 27.081 76.9606 27.358 75.1452 27.358C72.1452 27.358 69.7972 26.7443 68.1012 25.517C66.4137 24.2898 65.4719 22.6705 65.2759 20.6591H72.2816C72.3754 21.2812 72.6822 21.7628 73.2021 22.1037C73.7305 22.4361 74.3952 22.6023 75.1964 22.6023C75.8441 22.6023 76.3768 22.4915 76.7944 22.2699C77.2205 22.0483 77.4379 21.733 77.4464 21.3239C77.4379 20.9489 77.2504 20.6506 76.8839 20.429C76.5259 20.2074 75.9634 20.0284 75.1964 19.892L71.7191 19.2784C69.7163 18.929 68.2163 18.2642 67.2191 17.2841C66.2219 16.304 65.7276 15.0426 65.7362 13.5C65.7276 12.1364 66.0856 10.9815 66.81 10.0355C67.543 9.08096 68.587 8.35653 69.9421 7.86222C71.3058 7.35938 72.9208 7.10795 74.7873 7.10795C77.6254 7.10795 79.8626 7.69602 81.4989 8.87216C83.1438 10.0483 84.0089 11.6761 84.0941 13.7557ZM99.0195 7.36364V12.4773H86.082V7.36364H99.0195ZM88.5877 2.65909H95.6445V20.6847C95.6445 20.9574 95.6914 21.1875 95.7852 21.375C95.8789 21.554 96.0238 21.6903 96.2198 21.7841C96.4158 21.8693 96.6673 21.9119 96.9741 21.9119C97.1871 21.9119 97.4343 21.8864 97.7156 21.8352C98.0053 21.7841 98.2184 21.7415 98.3548 21.7074L99.3775 26.6676C99.0621 26.7614 98.6104 26.8764 98.0224 27.0128C97.4428 27.1491 96.7525 27.2386 95.9514 27.2812C94.332 27.3665 92.9727 27.2003 91.8732 26.7827C90.7738 26.3565 89.9471 25.6875 89.3931 24.7756C88.8391 23.8636 88.5707 22.7216 88.5877 21.3494V2.65909ZM111.097 27.358C109.001 27.358 107.194 26.9574 105.677 26.1562C104.168 25.3466 103.005 24.1875 102.187 22.679C101.377 21.1619 100.972 19.3466 100.972 17.233C100.972 15.2045 101.381 13.4318 102.2 11.9148C103.018 10.3977 104.173 9.21733 105.664 8.37358C107.156 7.52983 108.915 7.10795 110.944 7.10795C112.427 7.10795 113.769 7.33807 114.971 7.7983C116.173 8.25852 117.2 8.92756 118.052 9.8054C118.904 10.6747 119.56 11.7315 120.021 12.9759C120.481 14.2202 120.711 15.6222 120.711 17.1818V18.8182H103.171V14.9318H114.217C114.208 14.3693 114.063 13.875 113.782 13.4489C113.509 13.0142 113.138 12.6776 112.67 12.4389C112.21 12.1918 111.685 12.0682 111.097 12.0682C110.526 12.0682 110.002 12.1918 109.525 12.4389C109.048 12.6776 108.664 13.0099 108.374 13.4361C108.093 13.8622 107.944 14.3608 107.927 14.9318V19.125C107.927 19.7557 108.059 20.3182 108.323 20.8125C108.587 21.3068 108.967 21.6946 109.461 21.9759C109.955 22.2571 110.552 22.3977 111.251 22.3977C111.737 22.3977 112.18 22.3295 112.58 22.1932C112.989 22.0568 113.339 21.8608 113.629 21.6051C113.918 21.3409 114.131 21.0256 114.268 20.6591H120.711C120.489 22.0227 119.965 23.2074 119.138 24.2131C118.312 25.2102 117.217 25.9858 115.853 26.5398C114.498 27.0852 112.913 27.358 111.097 27.358ZM130.647 15.9545V27H123.591V7.36364H130.289V11.0966H130.494C130.92 9.85227 131.67 8.87642 132.744 8.16903C133.826 7.46165 135.088 7.10795 136.528 7.10795C137.917 7.10795 139.123 7.42756 140.146 8.06676C141.177 8.69744 141.974 9.56676 142.537 10.6747C143.108 11.7827 143.389 13.0483 143.38 14.4716V27H136.324V15.9545C136.332 14.983 136.085 14.2202 135.582 13.6662C135.088 13.1122 134.397 12.8352 133.511 12.8352C132.931 12.8352 132.424 12.9631 131.99 13.2188C131.564 13.4659 131.235 13.8239 131.005 14.2926C130.775 14.7528 130.656 15.3068 130.647 15.9545ZM156.324 27.358C154.194 27.358 152.37 26.9361 150.853 26.0923C149.336 25.2401 148.172 24.0554 147.363 22.5384C146.553 21.0128 146.148 19.2443 146.148 17.233C146.148 15.2216 146.553 13.4574 147.363 11.9403C148.172 10.4148 149.336 9.23011 150.853 8.38636C152.37 7.53409 154.194 7.10795 156.324 7.10795C158.25 7.10795 159.917 7.45739 161.323 8.15625C162.738 8.84659 163.833 9.8267 164.608 11.0966C165.384 12.358 165.776 13.8409 165.784 15.5455H159.239C159.145 14.5142 158.847 13.7301 158.344 13.1932C157.85 12.6477 157.211 12.375 156.426 12.375C155.813 12.375 155.276 12.554 154.816 12.9119C154.355 13.2614 153.998 13.794 153.742 14.5099C153.486 15.2173 153.358 16.108 153.358 17.1818C153.358 18.2557 153.486 19.1506 153.742 19.8665C153.998 20.5739 154.355 21.1065 154.816 21.4645C155.276 21.8139 155.813 21.9886 156.426 21.9886C156.946 21.9886 157.407 21.8693 157.807 21.6307C158.208 21.3835 158.532 21.0256 158.779 20.5568C159.034 20.0795 159.188 19.5 159.239 18.8182H165.784C165.759 20.5483 165.363 22.0568 164.596 23.3438C163.828 24.6222 162.742 25.6108 161.336 26.3097C159.938 27.0085 158.267 27.358 156.324 27.358ZM178.105 27.358C176.009 27.358 174.202 26.9574 172.685 26.1562C171.176 25.3466 170.013 24.1875 169.195 22.679C168.385 21.1619 167.98 19.3466 167.98 17.233C167.98 15.2045 168.389 13.4318 169.207 11.9148C170.026 10.3977 171.18 9.21733 172.672 8.37358C174.163 7.52983 175.923 7.10795 177.952 7.10795C179.435 7.10795 180.777 7.33807 181.979 7.7983C183.18 8.25852 184.207 8.92756 185.06 9.8054C185.912 10.6747 186.568 11.7315 187.028 12.9759C187.489 14.2202 187.719 15.6222 187.719 17.1818V18.8182H170.179V14.9318H181.224C181.216 14.3693 181.071 13.875 180.79 13.4489C180.517 13.0142 180.146 12.6776 179.678 12.4389C179.217 12.1918 178.693 12.0682 178.105 12.0682C177.534 12.0682 177.01 12.1918 176.533 12.4389C176.055 12.6776 175.672 13.0099 175.382 13.4361C175.101 13.8622 174.952 14.3608 174.935 14.9318V19.125C174.935 19.7557 175.067 20.3182 175.331 20.8125C175.595 21.3068 175.974 21.6946 176.469 21.9759C176.963 22.2571 177.56 22.3977 178.259 22.3977C178.744 22.3977 179.188 22.3295 179.588 22.1932C179.997 22.0568 180.347 21.8608 180.636 21.6051C180.926 21.3409 181.139 21.0256 181.276 20.6591H187.719C187.497 22.0227 186.973 23.2074 186.146 24.2131C185.32 25.2102 184.224 25.9858 182.861 26.5398C181.506 27.0852 179.92 27.358 178.105 27.358Z" fill="url(#paint0_linear_4_5)"/>
<defs>
<linearGradient id="paint0_linear_4_5" x1="365.535" y1="-47.4483" x2="-138.223" y2="95.1204" gradientUnits="userSpaceOnUse">
<stop stop-color="#DB00FF"/>
<stop offset="1" stop-color="#0047FF"/>
</linearGradient>
</defs>
</svg>
